<svg width="35" height="35" viewBox="0 0 35 35" fill="none" xmlns="http://www.w3.org/2000/svg">
<path d="M24.7187 14.9188L16.4645 23.1729C15.8958 23.7417 14.977 23.7417 14.4083 23.1729L10.2812 19.0459C9.71246 18.4771 9.71246 17.5584 10.2812 16.9896C10.85 16.4209 11.7687 16.4209 12.3375 16.9896L15.4291 20.0813L22.6479 12.8625C23.2166 12.2938 24.1354 12.2938 24.7041 12.8625C25.2875 13.4313 25.2875 14.35 24.7187 14.9188ZM5.83329 17.5C5.83329 14.1021 7.32079 11.0542 9.65413 8.92502L11.8854 11.1563C12.3375 11.6084 13.125 11.2875 13.125 10.6313V4.37502C13.125 3.96669 12.8041 3.64585 12.3958 3.64585H6.13954C5.48329 3.64585 5.16246 4.43335 5.62913 4.88544L7.58329 6.85419C4.72496 9.50835 2.91663 13.2854 2.91663 17.5C2.91663 24.4271 7.75829 30.2313 14.2333 31.7188C15.152 31.9229 16.0416 31.2375 16.0416 30.2896C16.0416 29.6042 15.5604 29.0209 14.8895 28.8604C9.71246 27.6792 5.83329 23.0417 5.83329 17.5ZM32.0833 17.5C32.0833 10.5729 27.2416 4.76877 20.7666 3.28127C19.8479 3.0771 18.9583 3.76252 18.9583 4.71044C18.9583 5.39585 19.4395 5.97919 20.1104 6.1396C25.2875 7.32085 29.1666 11.9584 29.1666 17.5C29.1666 20.8979 27.6791 23.9459 25.3458 26.075L23.1145 23.8438C22.6625 23.3917 21.875 23.7125 21.875 24.3688V30.625C21.875 31.0334 22.1958 31.3542 22.6041 31.3542H28.8604C29.5166 31.3542 29.8375 30.5667 29.3708 30.1146L27.4166 28.1459C30.275 25.4917 32.0833 21.7146 32.0833 17.5Z" fill="url(#paint0_linear_421_7308)"/>
<defs>
<linearGradient id="paint0_linear_421_7308" x1="2.91663" y1="16.5497" x2="31.3842" y2="16.6797" gradientUnits="userSpaceOnUse">
<stop stop-color="#1670B1"/>
<stop offset="1" stop-color="#1670B1" stop-opacity="0.65"/>
</linearGradient>
</defs>
</svg>
