<svg width="35" height="35" viewBox="0 0 35 35" fill="none" xmlns="http://www.w3.org/2000/svg">
<path d="M9.33317 13.4167H9.62484C10.7478 13.4167 11.6665 14.3354 11.6665 15.4583V25.6667C11.6665 26.7896 10.7478 27.7083 9.62484 27.7083H9.33317C8.21025 27.7083 7.2915 26.7896 7.2915 25.6667V15.4583C7.2915 14.3354 8.21025 13.4167 9.33317 13.4167V13.4167ZM17.4998 7.29166C18.6228 7.29166 19.5415 8.21041 19.5415 9.33332V25.6667C19.5415 26.7896 18.6228 27.7083 17.4998 27.7083C16.3769 27.7083 15.4582 26.7896 15.4582 25.6667V9.33332C15.4582 8.21041 16.3769 7.29166 17.4998 7.29166ZM25.6665 18.9583C26.7894 18.9583 27.7082 19.8771 27.7082 21V25.6667C27.7082 26.7896 26.7894 27.7083 25.6665 27.7083C24.5436 27.7083 23.6248 26.7896 23.6248 25.6667V21C23.6248 19.8771 24.5436 18.9583 25.6665 18.9583V18.9583Z" fill="url(#paint0_linear_502_8551)"/>
<defs>
<linearGradient id="paint0_linear_502_8551" x1="7.2915" y1="16.8194" x2="27.2188" y2="16.9084" gradientUnits="userSpaceOnUse">
<stop stop-color="white"/>
<stop offset="1" stop-color="white" stop-opacity="0.65"/>
</linearGradient>
</defs>
</svg>
