<svg width="35" height="35" viewBox="0 0 35 35" fill="none" xmlns="http://www.w3.org/2000/svg">
<path d="M16.3187 1.98325L6.11042 6.51867C5.06042 6.98533 4.375 8.03533 4.375 9.18742V16.0416C4.375 24.1353 9.975 31.7041 17.5 33.5416C25.025 31.7041 30.625 24.1353 30.625 16.0416V9.18742C30.625 8.03533 29.9396 6.98533 28.8896 6.51867L18.6813 1.98325C17.9375 1.64784 17.0625 1.64784 16.3187 1.98325ZM13.5479 23.7562L9.77083 19.9791C9.20208 19.4103 9.20208 18.4916 9.77083 17.9228C10.3396 17.3541 11.2583 17.3541 11.8271 17.9228L14.5833 20.6645L23.1583 12.0895C23.7271 11.5208 24.6458 11.5208 25.2146 12.0895C25.7833 12.6583 25.7833 13.577 25.2146 14.1458L15.6042 23.7562C15.05 24.3249 14.1167 24.3249 13.5479 23.7562Z" fill="url(#paint0_linear_421_7320)"/>
<defs>
<linearGradient id="paint0_linear_421_7320" x1="4.375" y1="16.5763" x2="29.996" y2="16.6707" gradientUnits="userSpaceOnUse">
<stop stop-color="#1670B1"/>
<stop offset="1" stop-color="#1670B1" stop-opacity="0.65"/>
</linearGradient>
</defs>
</svg>
