<svg width="35" height="35" viewBox="0 0 35 35" fill="none" xmlns="http://www.w3.org/2000/svg">
<path d="M16.0417 12.7604V18.1271C16.0417 18.6375 16.3188 19.1188 16.7563 19.3813L21.3063 22.0792C21.8313 22.3854 22.5021 22.2104 22.8084 21.7C23.1146 21.175 22.9542 20.5042 22.4292 20.1979L18.2438 17.7042V12.7458C18.2292 12.1625 17.7334 11.6667 17.1354 11.6667C16.5375 11.6667 16.0417 12.1625 16.0417 12.7604ZM30.625 13.8542V6.13959C30.625 5.48334 29.8375 5.16251 29.3854 5.62917L26.7896 8.22501C24.15 5.58542 20.3875 4.06876 16.275 4.43334C10.1646 4.98751 5.13335 9.90209 4.46252 16.0125C3.58752 23.9167 9.75627 30.625 17.5 30.625C24.1938 30.625 29.7209 25.6083 30.5229 19.1333C30.625 18.2583 29.9396 17.5 29.0646 17.5C28.3354 17.5 27.7229 18.0396 27.6354 18.7542C27.0084 23.8438 22.6188 27.7813 17.3542 27.7083C11.9438 27.6354 7.37919 23.0708 7.29169 17.6458C7.20419 11.9583 11.8271 7.29167 17.5 7.29167C20.3146 7.29167 22.8667 8.44376 24.7188 10.2813L21.6709 13.3292C21.2042 13.7958 21.525 14.5833 22.1813 14.5833H29.8959C30.3042 14.5833 30.625 14.2625 30.625 13.8542Z" fill="url(#paint0_linear_421_7282)"/>
<defs>
<linearGradient id="paint0_linear_421_7282" x1="4.37964" y1="16.6275" x2="29.996" y2="16.7418" gradientUnits="userSpaceOnUse">
<stop stop-color="#1670B1"/>
<stop offset="1" stop-color="#1670B1" stop-opacity="0.65"/>
</linearGradient>
</defs>
</svg>
