<svg width="23" height="26" viewBox="0 0 23 26" fill="none" xmlns="http://www.w3.org/2000/svg">
<g clip-path="url(#clip0_494_13215)">
<path d="M20.0479 1.90625H2.76669C2.1417 1.90625 1.5423 2.15453 1.10037 2.59646C0.658433 3.0384 0.410156 3.63779 0.410156 4.26278L0.410156 21.544C0.410156 22.169 0.658433 22.7684 1.10037 23.2104C1.5423 23.6523 2.1417 23.9006 2.76669 23.9006H9.5049V16.423H6.41195V12.9034H9.5049V10.2209C9.5049 7.16967 11.3214 5.48425 14.1036 5.48425C15.436 5.48425 16.8293 5.72187 16.8293 5.72187V8.71663H15.2941C13.7815 8.71663 13.3097 9.65532 13.3097 10.6181V12.9034H16.6864L16.1464 16.423H13.3097V23.9006H20.0479C20.6729 23.9006 21.2723 23.6523 21.7143 23.2104C22.1562 22.7684 22.4045 22.169 22.4045 21.544V4.26278C22.4045 3.63779 22.1562 3.0384 21.7143 2.59646C21.2723 2.15453 20.6729 1.90625 20.0479 1.90625Z" fill="url(#paint0_linear_494_13215)"/>
</g>
<defs>
<linearGradient id="paint0_linear_494_13215" x1="0.410156" y1="12.1703" x2="21.8773" y2="12.2661" gradientUnits="userSpaceOnUse">
<stop stop-color="#1670B1"/>
<stop offset="1" stop-color="#1670B1" stop-opacity="0.65"/>
</linearGradient>
<clipPath id="clip0_494_13215">
<rect width="21.9943" height="25.1364" fill="white" transform="translate(0.410156 0.335938)"/>
</clipPath>
</defs>
</svg>
