<svg width="23" height="35" viewBox="0 0 23 35" fill="none" xmlns="http://www.w3.org/2000/svg">
<path d="M19.0909 0H3.18182C1.43182 0 0 1.43182 0 3.18182V31.8182C0 33.5682 1.43182 35 3.18182 35H19.0909C20.8409 35 22.2727 33.5682 22.2727 31.8182V3.18182C22.2727 1.43182 20.8409 0 19.0909 0ZM19.0909 27.0455H3.18182V7.95455H19.0909V27.0455ZM11.9318 15.9091V12.9182C11.9318 12.075 10.8023 11.8045 10.4205 12.5682L7.73182 17.9455C7.47727 18.4705 7.85909 19.0909 8.44773 19.0909H10.3409V22.0818C10.3409 22.925 11.4705 23.1955 11.8523 22.4318L14.5409 17.0545C14.7955 16.5295 14.4136 15.9091 13.825 15.9091H11.9318Z" fill="url(#paint0_linear_421_7297)"/>
<defs>
<linearGradient id="paint0_linear_421_7297" x1="-1.19412e-07" y1="16.3333" x2="21.7392" y2="16.3951" gradientUnits="userSpaceOnUse">
<stop stop-color="#1670B1"/>
<stop offset="1" stop-color="#1670B1" stop-opacity="0.65"/>
</linearGradient>
</defs>
</svg>
