<svg width="35" height="35" viewBox="0 0 35 35" fill="none" xmlns="http://www.w3.org/2000/svg">
<path d="M23.3334 5.83332C23.3334 4.21457 24.6313 2.91666 26.2501 2.91666C27.8688 2.91666 29.1667 4.21457 29.1667 5.83332C29.1667 7.45207 27.8688 8.74999 26.2501 8.74999C24.6313 8.74999 23.3334 7.45207 23.3334 5.83332ZM29.1667 30.625V23.3333H30.7855C31.7772 23.3333 32.4772 22.3562 32.1709 21.4083L29.1084 12.2062C28.7001 11.0104 27.5917 10.2083 26.3376 10.2083H26.1626C24.9084 10.2083 23.7855 11.0104 23.3917 12.2062L22.1376 15.9687C23.7126 16.8437 24.7917 18.4917 24.7917 20.4167V32.0833H27.7084C28.5105 32.0833 29.1667 31.4271 29.1667 30.625ZM18.2292 16.7708C19.4397 16.7708 20.4167 15.7937 20.4167 14.5833C20.4167 13.3729 19.4397 12.3958 18.2292 12.3958C17.0188 12.3958 16.0417 13.3729 16.0417 14.5833C16.0417 15.7937 17.0188 16.7708 18.2292 16.7708ZM8.02091 8.74999C9.63966 8.74999 10.9376 7.45207 10.9376 5.83332C10.9376 4.21457 9.63966 2.91666 8.02091 2.91666C6.40216 2.91666 5.10425 4.21457 5.10425 5.83332C5.10425 7.45207 6.40216 8.74999 8.02091 8.74999ZM10.9376 30.625V21.875H11.6667C12.4688 21.875 13.1251 21.2187 13.1251 20.4167V13.125C13.1251 11.5208 11.8126 10.2083 10.2084 10.2083H5.83341C4.22925 10.2083 2.91675 11.5208 2.91675 13.125V20.4167C2.91675 21.2187 3.573 21.875 4.37508 21.875H5.10425V30.625C5.10425 31.4271 5.7605 32.0833 6.56258 32.0833H9.47925C10.2813 32.0833 10.9376 31.4271 10.9376 30.625ZM14.5834 20.4167V24.7917C14.5834 25.5937 15.2397 26.25 16.0417 26.25V30.625C16.0417 31.4271 16.698 32.0833 17.5001 32.0833H18.9584C19.7605 32.0833 20.4167 31.4271 20.4167 30.625V26.25C21.2188 26.25 21.8751 25.5937 21.8751 24.7917V20.4167C21.8751 19.2208 20.8834 18.2292 19.6876 18.2292H16.7709C15.5751 18.2292 14.5834 19.2208 14.5834 20.4167Z" fill="url(#paint0_linear_502_8539)"/>
<defs>
<linearGradient id="paint0_linear_502_8539" x1="17.5802" y1="2.91666" x2="17.5802" y2="32.0833" gradientUnits="userSpaceOnUse">
<stop stop-color="#1670B1" stop-opacity="0.7"/>
<stop offset="1" stop-color="#1670B1" stop-opacity="0.45"/>
</linearGradient>
</defs>
</svg>
