<svg width="23" height="26" viewBox="0 0 23 26" fill="none" xmlns="http://www.w3.org/2000/svg">
<g clip-path="url(#clip0_494_13211)">
<path d="M11.7753 7.25833C8.65287 7.25833 6.13432 9.77687 6.13432 12.8993C6.13432 16.0217 8.65287 18.5402 11.7753 18.5402C14.8977 18.5402 17.4162 16.0217 17.4162 12.8993C17.4162 9.77687 14.8977 7.25833 11.7753 7.25833ZM11.7753 16.5666C9.75749 16.5666 8.10792 14.922 8.10792 12.8993C8.10792 10.8766 9.75258 9.23192 11.7753 9.23192C13.798 9.23192 15.4426 10.8766 15.4426 12.8993C15.4426 14.922 13.7931 16.5666 11.7753 16.5666ZM18.9627 7.02758C18.9627 7.75909 18.3736 8.34331 17.647 8.34331C16.9155 8.34331 16.3312 7.75418 16.3312 7.02758C16.3312 6.30098 16.9204 5.71185 17.647 5.71185C18.3736 5.71185 18.9627 6.30098 18.9627 7.02758ZM22.6988 8.36295C22.6153 6.60046 22.2127 5.03926 20.9216 3.75298C19.6353 2.46671 18.0741 2.06413 16.3116 1.97576C14.4951 1.87266 9.05053 1.87266 7.23404 1.97576C5.47646 2.05922 3.91526 2.4618 2.62407 3.74807C1.33289 5.03435 0.935225 6.59555 0.846855 8.35804C0.743757 10.1745 0.743757 15.6191 0.846855 17.4356C0.930315 19.1981 1.33289 20.7593 2.62407 22.0456C3.91526 23.3319 5.47155 23.7344 7.23404 23.8228C9.05053 23.9259 14.4951 23.9259 16.3116 23.8228C18.0741 23.7393 19.6353 23.3368 20.9216 22.0456C22.2078 20.7593 22.6104 19.1981 22.6988 17.4356C22.8019 15.6191 22.8019 10.1794 22.6988 8.36295ZM20.3521 19.3847C19.9691 20.3469 19.2278 21.0882 18.2606 21.4761C16.8124 22.0505 13.3758 21.9179 11.7753 21.9179C10.1748 21.9179 6.73328 22.0456 5.2899 21.4761C4.32765 21.0931 3.58632 20.3518 3.19848 19.3847C2.62407 17.9364 2.75663 14.4998 2.75663 12.8993C2.75663 11.2988 2.62898 7.85728 3.19848 6.4139C3.58141 5.45165 4.32274 4.71032 5.2899 4.32248C6.73819 3.74807 10.1748 3.88063 11.7753 3.88063C13.3758 3.88063 16.8173 3.75298 18.2606 4.32248C19.2229 4.70541 19.9642 5.44674 20.3521 6.4139C20.9265 7.86219 20.7939 11.2988 20.7939 12.8993C20.7939 14.4998 20.9265 17.9413 20.3521 19.3847Z" fill="url(#paint0_linear_494_13211)"/>
</g>
<defs>
<linearGradient id="paint0_linear_494_13211" x1="0.769531" y1="12.1659" x2="22.2487" y2="12.2618" gradientUnits="userSpaceOnUse">
<stop stop-color="#1670B1"/>
<stop offset="1" stop-color="#1670B1" stop-opacity="0.65"/>
</linearGradient>
<clipPath id="clip0_494_13211">
<rect width="21.9943" height="25.1364" fill="white" transform="translate(0.773438 0.335938)"/>
</clipPath>
</defs>
</svg>
