<svg width="35" height="35" viewBox="0 0 35 35" fill="none" xmlns="http://www.w3.org/2000/svg">
<path d="M23.3333 5.83342C23.3333 4.21466 24.6312 2.91675 26.25 2.91675C27.8687 2.91675 29.1666 4.21466 29.1666 5.83342C29.1666 7.45217 27.8687 8.75008 26.25 8.75008C24.6312 8.75008 23.3333 7.45217 23.3333 5.83342ZM29.1666 30.6251V23.3334H30.7854C31.777 23.3334 32.477 22.3563 32.1708 21.4084L29.1083 12.2063C28.7 11.0105 27.5916 10.2084 26.3375 10.2084H26.1625C24.9083 10.2084 23.7854 11.0105 23.3916 12.2063L22.1375 15.9688C23.7125 16.8438 24.7916 18.4917 24.7916 20.4167V32.0834H27.7083C28.5104 32.0834 29.1666 31.4272 29.1666 30.6251ZM18.2291 16.7709C19.4395 16.7709 20.4166 15.7938 20.4166 14.5834C20.4166 13.373 19.4395 12.3959 18.2291 12.3959C17.0187 12.3959 16.0416 13.373 16.0416 14.5834C16.0416 15.7938 17.0187 16.7709 18.2291 16.7709ZM8.02079 8.75008C9.63954 8.75008 10.9375 7.45217 10.9375 5.83342C10.9375 4.21466 9.63954 2.91675 8.02079 2.91675C6.40204 2.91675 5.10413 4.21466 5.10413 5.83342C5.10413 7.45217 6.40204 8.75008 8.02079 8.75008ZM10.9375 30.6251V21.8751H11.6666C12.4687 21.8751 13.125 21.2188 13.125 20.4167V13.1251C13.125 11.5209 11.8125 10.2084 10.2083 10.2084H5.83329C4.22913 10.2084 2.91663 11.5209 2.91663 13.1251V20.4167C2.91663 21.2188 3.57288 21.8751 4.37496 21.8751H5.10413V30.6251C5.10413 31.4272 5.76038 32.0834 6.56246 32.0834H9.47913C10.2812 32.0834 10.9375 31.4272 10.9375 30.6251ZM14.5833 20.4167V24.7917C14.5833 25.5938 15.2395 26.2501 16.0416 26.2501V30.6251C16.0416 31.4272 16.6979 32.0834 17.5 32.0834H18.9583C19.7604 32.0834 20.4166 31.4272 20.4166 30.6251V26.2501C21.2187 26.2501 21.875 25.5938 21.875 24.7917V20.4167C21.875 19.2209 20.8833 18.2292 19.6875 18.2292H16.7708C15.575 18.2292 14.5833 19.2209 14.5833 20.4167Z" fill="url(#paint0_linear_421_7287)"/>
<defs>
<linearGradient id="paint0_linear_421_7287" x1="2.91663" y1="16.5279" x2="31.5406" y2="16.6563" gradientUnits="userSpaceOnUse">
<stop stop-color="#1670B1"/>
<stop offset="1" stop-color="#1670B1" stop-opacity="0.65"/>
</linearGradient>
</defs>
</svg>
