<svg width="35" height="24" viewBox="0 0 35 24" fill="none" xmlns="http://www.w3.org/2000/svg">
<path d="M29.3353 2.06284C28.6775 1.40886 27.8964 0.890074 27.0367 0.536126C26.177 0.182178 25.2556 0 24.325 0C23.3945 0 22.473 0.182178 21.6134 0.536126C20.7537 0.890074 19.9726 1.40886 19.3148 2.06284L17.9495 3.41944L16.5842 2.06284C15.2554 0.742463 13.4531 0.000684396 11.5739 0.000684409C9.69468 0.000684423 7.89243 0.742463 6.56361 2.06284C5.2348 3.38321 4.48828 5.17402 4.48828 7.04131C4.48828 8.9086 5.2348 10.6994 6.56361 12.0198L7.92889 13.3764L17.9495 23.3333L27.9701 13.3764L29.3353 12.0198C29.9935 11.3661 30.5156 10.59 30.8718 9.73577C31.228 8.88155 31.4114 7.96596 31.4114 7.04131C31.4114 6.11666 31.228 5.20107 30.8718 4.34685C30.5156 3.49263 29.9935 2.71651 29.3353 2.06284V2.06284Z" fill="url(#paint0_linear_455_6726)"/>
<path d="M14.5833 17.0514C14.3276 17.0512 14.0764 16.9837 13.855 16.8557C13.6336 16.7277 13.4497 16.5438 13.3219 16.3223L10.8354 11.8526L9.24583 14.2369C9.10903 14.4342 8.92565 14.5946 8.71195 14.704C8.49826 14.8134 8.26086 14.8684 8.02083 14.864H1.45833C1.07156 14.864 0.700627 14.7103 0.427136 14.4369C0.153645 14.1634 0 13.7924 0 13.4057C0 13.0189 0.153645 12.648 0.427136 12.3745C0.700627 12.101 1.07156 11.9474 1.45833 11.9474H7.24063L9.72708 8.22142C9.866 8.01382 10.0559 7.84538 10.2786 7.73225C10.5013 7.61912 10.7494 7.56508 10.9989 7.57533C11.2485 7.58558 11.4913 7.65976 11.704 7.79077C11.9166 7.92177 12.0921 8.10521 12.2135 8.3235L14.5833 12.6765L18.3969 6.11418C18.5272 5.88837 18.7156 5.70163 18.9426 5.57339C19.1696 5.44515 19.4268 5.38011 19.6875 5.38503C19.942 5.38656 20.1917 5.45467 20.4117 5.58259C20.6317 5.7105 20.8144 5.89377 20.9417 6.11418L24.4344 11.9474L25.8927 10.7953C26.1512 10.5947 26.4697 10.4868 26.7969 10.4891H33.5417C33.9284 10.4891 34.2994 10.6427 34.5729 10.9162C34.8464 11.1897 35 11.5606 35 11.9474C35 12.3341 34.8464 12.7051 34.5729 12.9786C34.2994 13.252 33.9284 13.4057 33.5417 13.4057H27.3073L24.9375 15.2796C24.7742 15.4139 24.5837 15.5111 24.3791 15.5645C24.1745 15.6178 23.9608 15.6261 23.7527 15.5886C23.5446 15.5512 23.3471 15.4689 23.174 15.3476C23.0009 15.2262 22.8562 15.0687 22.75 14.8859L19.6875 9.71618L15.8448 16.3223C15.7169 16.5438 15.5331 16.7277 15.3117 16.8557C15.0902 16.9837 14.8391 17.0512 14.5833 17.0514Z" fill="#92B5CD"/>
<defs>
<linearGradient id="paint0_linear_455_6726" x1="4.48828" y1="10.8889" x2="30.7659" y2="11.0242" gradientUnits="userSpaceOnUse">
<stop stop-color="#1670B1"/>
<stop offset="1" stop-color="#1670B1" stop-opacity="0.65"/>
</linearGradient>
</defs>
</svg>
