<svg width="28" height="35" viewBox="0 0 28 35" fill="none" xmlns="http://www.w3.org/2000/svg">
<path d="M27.7076 23.4668C27.7076 29.2054 23.0556 33.8574 17.317 33.8574C11.5784 33.8574 9.04297 28.2514 9.04297 22.5128C9.04297 16.7742 11.5784 13.0762 17.317 13.0762C23.0556 13.0762 27.7076 17.7282 27.7076 23.4668Z" fill="url(#paint0_linear_494_12680)"/>
<g filter="url(#filter0_b_494_12680)">
<path d="M0 5C0 2.23858 2.23858 0 5 0H15.3226C18.084 0 20.3226 2.23858 20.3226 5V30C20.3226 32.7614 18.084 35 15.3226 35H5C2.23858 35 0 32.7614 0 30V5Z" fill="#EDEDED" fill-opacity="0.37"/>
</g>
<path d="M7.90286 7.90357C7.90286 9.15067 6.89189 10.1616 5.6448 10.1616C4.39771 10.1616 3.38674 9.15067 3.38674 7.90357C3.38674 6.65648 4.39771 5.64551 5.6448 5.64551C6.89189 5.64551 7.90286 6.65648 7.90286 7.90357Z" fill="white"/>
<path d="M15.8061 7.90361C15.8061 9.15071 14.7951 10.1617 13.548 10.1617C12.3009 10.1617 11.29 9.15071 11.29 7.90361C11.29 6.65652 12.3009 5.64555 13.548 5.64555C14.7951 5.64555 15.8061 6.65652 15.8061 7.90361Z" fill="white"/>
<path d="M7.90285 16.9359C7.90285 18.183 6.89188 19.194 5.64478 19.194C4.39769 19.194 3.38672 18.183 3.38672 16.9359C3.38672 15.6888 4.39769 14.6778 5.64478 14.6778C6.89188 14.6778 7.90285 15.6888 7.90285 16.9359Z" fill="white"/>
<path d="M15.8061 16.9359C15.8061 18.183 14.7951 19.194 13.548 19.194C12.3009 19.194 11.29 18.183 11.29 16.9359C11.29 15.6888 12.3009 14.6778 13.548 14.6778C14.7951 14.6778 15.8061 15.6888 15.8061 16.9359Z" fill="white"/>
<path d="M7.90285 25.9681C7.90285 27.2152 6.89188 28.2261 5.64478 28.2261C4.39769 28.2261 3.38672 27.2152 3.38672 25.9681C3.38672 24.721 4.39769 23.71 5.64478 23.71C6.89188 23.71 7.90285 24.721 7.90285 25.9681Z" fill="white"/>
<path d="M15.8061 25.9681C15.8061 27.2152 14.7951 28.2261 13.548 28.2261C12.3009 28.2261 11.29 27.2152 11.29 25.9681C11.29 24.721 12.3009 23.71 13.548 23.71C14.7951 23.71 15.8061 24.721 15.8061 25.9681Z" fill="white"/>
<defs>
<filter id="filter0_b_494_12680" x="-25" y="-25" width="70.3225" height="85" filterUnits="userSpaceOnUse" color-interpolation-filters="sRGB">
<feFlood flood-opacity="0" result="BackgroundImageFix"/>
<feGaussianBlur in="BackgroundImage" stdDeviation="12.5"/>
<feComposite in2="SourceAlpha" operator="in" result="effect1_backgroundBlur_494_12680"/>
<feBlend mode="normal" in="SourceGraphic" in2="effect1_backgroundBlur_494_12680" result="shape"/>
</filter>
<linearGradient id="paint0_linear_494_12680" x1="18.3753" y1="13.0762" x2="18.3753" y2="33.8574" gradientUnits="userSpaceOnUse">
<stop stop-color="#1670B1" stop-opacity="0.7"/>
<stop offset="1" stop-color="#1670B1" stop-opacity="0.45"/>
</linearGradient>
</defs>
</svg>
