<svg width="27" height="29" viewBox="0 0 27 29" fill="none" xmlns="http://www.w3.org/2000/svg">
<path d="M5.77543 11.4644C8.33159 7.99831 18.1273 1.12197 21.5933 3.67813C25.0594 6.23429 20.8834 17.255 18.3272 20.7211L15.479 24.5831C12.9229 28.0492 8.04088 28.7869 4.57479 26.2307C1.10871 23.6746 0.371072 18.7926 2.92723 15.3265L5.77543 11.4644Z" fill="url(#paint0_linear_455_6653)"/>
<path d="M22.1905 2.09468C18.7244 -0.461475 13.8424 0.276161 11.2862 3.74224L6.65791 10.0181L19.2097 19.2748L23.838 12.9989C26.3942 9.53283 25.6566 4.65084 22.1905 2.09468Z" fill="#78A7C9"/>
<path fill-rule="evenodd" clip-rule="evenodd" d="M12.514 5.67514C14.317 2.07272 17.8488 1.69697 19.51 2.37442C19.9917 2.57088 20.223 3.12067 20.0265 3.6024C19.83 4.08414 19.2802 4.3154 18.7985 4.11894C17.9758 3.7834 15.5266 3.86519 14.1988 6.51835C13.9659 6.98359 13.4 7.17198 12.9348 6.93913C12.4695 6.70629 12.2811 6.14038 12.514 5.67514Z" fill="white"/>
<defs>
<linearGradient id="paint0_linear_455_6653" x1="1.05412" y1="15.6676" x2="22.9187" y2="14.0869" gradientUnits="userSpaceOnUse">
<stop stop-color="#1670B1"/>
<stop offset="1" stop-color="#1670B1" stop-opacity="0.65"/>
</linearGradient>
</defs>
</svg>
