<svg width="27" height="29" viewBox="0 0 27 29" fill="none" xmlns="http://www.w3.org/2000/svg">
<path d="M5.77443 11.4643C8.33059 7.99819 18.1263 1.12185 21.5923 3.67801C25.0584 6.23417 20.8824 17.2548 18.3262 20.7209L15.478 24.583C12.9219 28.0491 8.03988 28.7867 4.57379 26.2306C1.10771 23.6744 0.370073 18.7924 2.92623 15.3264L5.77443 11.4643Z" fill="url(#paint0_linear_454_6652)"/>
<path d="M22.1895 2.09456C18.7234 -0.461597 13.8414 0.276038 11.2852 3.74212L6.65691 10.018L19.2087 19.2747L23.837 12.9988C26.3932 9.53271 25.6556 4.65072 22.1895 2.09456Z" fill="#EEB99F"/>
<path fill-rule="evenodd" clip-rule="evenodd" d="M12.513 5.67514C14.316 2.07272 17.8478 1.69697 19.509 2.37442C19.9907 2.57088 20.222 3.12067 20.0255 3.6024C19.829 4.08414 19.2792 4.3154 18.7975 4.11894C17.9748 3.7834 15.5256 3.86519 14.1978 6.51835C13.9649 6.98359 13.399 7.17198 12.9338 6.93913C12.4685 6.70629 12.2801 6.14038 12.513 5.67514Z" fill="white"/>
<defs>
<linearGradient id="paint0_linear_454_6652" x1="1.05312" y1="15.6675" x2="22.9177" y2="14.0867" gradientUnits="userSpaceOnUse">
<stop stop-color="#F99462"/>
<stop offset="1" stop-color="#F99462" stop-opacity="0.65"/>
</linearGradient>
</defs>
</svg>
