<svg width="35" height="35" viewBox="0 0 35 35" fill="none" xmlns="http://www.w3.org/2000/svg">
<path d="M9.33335 13.4167H9.62502C10.7479 13.4167 11.6667 14.3355 11.6667 15.4584V25.6667C11.6667 26.7897 10.7479 27.7084 9.62502 27.7084H9.33335C8.21044 27.7084 7.29169 26.7897 7.29169 25.6667V15.4584C7.29169 14.3355 8.21044 13.4167 9.33335 13.4167ZM17.5 7.29175C18.6229 7.29175 19.5417 8.2105 19.5417 9.33341V25.6667C19.5417 26.7897 18.6229 27.7084 17.5 27.7084C16.3771 27.7084 15.4584 26.7897 15.4584 25.6667V9.33341C15.4584 8.2105 16.3771 7.29175 17.5 7.29175ZM25.6667 18.9584C26.7896 18.9584 27.7084 19.8772 27.7084 21.0001V25.6667C27.7084 26.7897 26.7896 27.7084 25.6667 27.7084C24.5438 27.7084 23.625 26.7897 23.625 25.6667V21.0001C23.625 19.8772 24.5438 18.9584 25.6667 18.9584Z" fill="url(#paint0_linear_421_7292)"/>
<defs>
<linearGradient id="paint0_linear_421_7292" x1="7.29169" y1="16.8195" x2="27.219" y2="16.9084" gradientUnits="userSpaceOnUse">
<stop stop-color="#1670B1"/>
<stop offset="1" stop-color="#1670B1" stop-opacity="0.65"/>
</linearGradient>
</defs>
</svg>
