<svg width="35" height="35" viewBox="0 0 35 35" fill="none" xmlns="http://www.w3.org/2000/svg">
<path d="M33.5416 17.5L29.9833 13.4313L30.4791 8.05L25.2146 6.85417L22.4583 2.1875L17.5 4.31667L12.5416 2.1875L9.7854 6.83958L4.52081 8.02083L5.01665 13.4167L1.45831 17.5L5.01665 21.5688L4.52081 26.9646L9.7854 28.1604L12.5416 32.8125L17.5 30.6688L22.4583 32.7979L25.2146 28.1458L30.4791 26.95L29.9833 21.5688L33.5416 17.5ZM13.6791 23.3479L10.2083 19.8479C9.63956 19.2792 9.63956 18.3604 10.2083 17.7917L10.3104 17.6896C10.8791 17.1208 11.8125 17.1208 12.3812 17.6896L14.7291 20.0521L22.2396 12.5271C22.8083 11.9583 23.7416 11.9583 24.3104 12.5271L24.4125 12.6292C24.9812 13.1979 24.9812 14.1167 24.4125 14.6854L15.7791 23.3479C15.1812 23.9167 14.2625 23.9167 13.6791 23.3479Z" fill="url(#paint0_linear_421_7302)"/>
<defs>
<linearGradient id="paint0_linear_421_7302" x1="1.45831" y1="16.4792" x2="32.7726" y2="16.6256" gradientUnits="userSpaceOnUse">
<stop stop-color="#1670B1"/>
<stop offset="1" stop-color="#1670B1" stop-opacity="0.65"/>
</linearGradient>
</defs>
</svg>
