<svg width="37" height="37" viewBox="0 0 37 37" fill="none" xmlns="http://www.w3.org/2000/svg">
<path fill-rule="evenodd" clip-rule="evenodd" d="M23.8929 22.01C24.999 20.7033 25.666 19.0131 25.666 17.167C25.666 13.0249 22.3082 9.66699 18.166 9.66699C14.0239 9.66699 10.666 13.0249 10.666 17.167C10.666 21.3091 14.0239 24.667 18.166 24.667C20.0121 24.667 21.7024 24 23.009 22.8939L25.2241 25.1089C25.4682 25.353 25.8639 25.353 26.108 25.1089C26.352 24.8649 26.352 24.4691 26.108 24.225L23.8929 22.01ZM24.416 17.167C24.416 20.6188 21.6178 23.417 18.166 23.417C14.7142 23.417 11.916 20.6188 11.916 17.167C11.916 13.7152 14.7142 10.917 18.166 10.917C21.6178 10.917 24.416 13.7152 24.416 17.167Z" fill="#333333"/>
</svg>
