<svg width="23" height="26" viewBox="0 0 23 26" fill="none" xmlns="http://www.w3.org/2000/svg">
<g clip-path="url(#clip0_494_13219)">
<path d="M19.6847 1.90625H2.40341C1.10241 1.90625 0.046875 2.96178 0.046875 4.26278V21.544C0.046875 22.845 1.10241 23.9006 2.40341 23.9006H19.6847C20.9857 23.9006 22.0412 22.845 22.0412 21.544V4.26278C22.0412 2.96178 20.9857 1.90625 19.6847 1.90625ZM17.2839 9.70245C17.2938 9.83991 17.2938 9.98229 17.2938 10.1198C17.2938 14.3762 14.0535 19.2808 8.13273 19.2808C6.30642 19.2808 4.61266 18.7506 3.18892 17.8374C3.44912 17.8669 3.6995 17.8767 3.96461 17.8767C5.47181 17.8767 6.85628 17.3661 7.9609 16.502C6.54698 16.4726 5.3589 15.5447 4.95141 14.2682C5.44727 14.3419 5.89403 14.3419 6.40461 14.2093C4.93177 13.9098 3.82715 12.6138 3.82715 11.0476V11.0084C4.25427 11.2489 4.75503 11.3962 5.28034 11.4158C4.8387 11.1221 4.47666 10.7236 4.22652 10.2558C3.97638 9.78809 3.84592 9.26571 3.84679 8.73529C3.84679 8.13634 4.00389 7.58648 4.28373 7.11026C5.86948 9.06422 8.25056 10.3407 10.9213 10.4781C10.4647 8.29344 12.0996 6.52113 14.0633 6.52113C14.9912 6.52113 15.8258 6.90898 16.415 7.53738C17.1416 7.39992 17.8387 7.1299 18.4573 6.76169C18.2167 7.50793 17.7111 8.13634 17.0434 8.534C17.6914 8.46527 18.3198 8.28362 18.8991 8.03324C18.4622 8.67638 17.9123 9.24587 17.2839 9.70245Z" fill="url(#paint0_linear_494_13219)"/>
</g>
<defs>
<linearGradient id="paint0_linear_494_13219" x1="0.0468749" y1="12.1703" x2="21.5141" y2="12.2661" gradientUnits="userSpaceOnUse">
<stop stop-color="#1670B1"/>
<stop offset="1" stop-color="#1670B1" stop-opacity="0.65"/>
</linearGradient>
<clipPath id="clip0_494_13219">
<rect width="21.9943" height="25.1364" fill="white" transform="translate(0.046875 0.335938)"/>
</clipPath>
</defs>
</svg>
