<svg width="35" height="35" viewBox="0 0 35 35" fill="none" xmlns="http://www.w3.org/2000/svg">
<path d="M16.0414 12.7604V18.1271C16.0414 18.6375 16.3185 19.1188 16.756 19.3813L21.306 22.0792C21.831 22.3854 22.5019 22.2104 22.8081 21.7C23.1144 21.175 22.9539 20.5042 22.4289 20.1979L18.2435 17.7042V12.7458C18.2289 12.1625 17.7331 11.6667 17.1352 11.6667C16.5373 11.6667 16.0414 12.1625 16.0414 12.7604ZM30.6248 13.8542V6.13959C30.6248 5.48334 29.8373 5.16251 29.3852 5.62917L26.7894 8.22501C24.1498 5.58542 20.3873 4.06876 16.2748 4.43334C10.1644 4.98751 5.13311 9.90209 4.46228 16.0125C3.58728 23.9167 9.75603 30.625 17.4998 30.625C24.1935 30.625 29.7206 25.6083 30.5227 19.1333C30.6248 18.2583 29.9394 17.5 29.0644 17.5C28.3352 17.5 27.7227 18.0396 27.6352 18.7542C27.0081 23.8438 22.6185 27.7813 17.3539 27.7083C11.9435 27.6354 7.37894 23.0708 7.29144 17.6458C7.20394 11.9583 11.8269 7.29167 17.4998 7.29167C20.3144 7.29167 22.8664 8.44376 24.7185 10.2813L21.6706 13.3292C21.2039 13.7958 21.5248 14.5833 22.181 14.5833H29.8956C30.3039 14.5833 30.6248 14.2625 30.6248 13.8542Z" fill="url(#paint0_linear_502_8545)"/>
<defs>
<linearGradient id="paint0_linear_502_8545" x1="4.37939" y1="16.6275" x2="29.9958" y2="16.7418" gradientUnits="userSpaceOnUse">
<stop stop-color="white"/>
<stop offset="1" stop-color="white" stop-opacity="0.65"/>
</linearGradient>
</defs>
</svg>
