<svg width="35" height="35" viewBox="0 0 35 35" fill="none" xmlns="http://www.w3.org/2000/svg">
<path d="M16.3187 1.98334L6.11042 6.51876C5.06042 6.98543 4.375 8.03543 4.375 9.18751V16.0417C4.375 24.1354 9.975 31.7042 17.5 33.5417C25.025 31.7042 30.625 24.1354 30.625 16.0417V9.18751C30.625 8.03543 29.9396 6.98543 28.8896 6.51876L18.6813 1.98334C17.9375 1.64793 17.0625 1.64793 16.3187 1.98334V1.98334ZM13.5479 23.7563L9.77083 19.9792C9.20208 19.4104 9.20208 18.4917 9.77083 17.9229C10.3396 17.3542 11.2583 17.3542 11.8271 17.9229L14.5833 20.6646L23.1583 12.0896C23.7271 11.5208 24.6458 11.5208 25.2146 12.0896C25.7833 12.6583 25.7833 13.5771 25.2146 14.1458L15.6042 23.7563C15.05 24.325 14.1167 24.325 13.5479 23.7563Z" fill="url(#paint0_linear_502_8554)"/>
<defs>
<linearGradient id="paint0_linear_502_8554" x1="4.375" y1="16.5764" x2="29.996" y2="16.6707" gradientUnits="userSpaceOnUse">
<stop stop-color="white"/>
<stop offset="1" stop-color="white" stop-opacity="0.65"/>
</linearGradient>
</defs>
</svg>
